<svg xmlns="http://www.w3.org/2000/svg" xmlns:xlink="http://www.w3.org/1999/xlink" width="87" height="11.009" viewBox="0 0 87 11.009">
  <defs>
    <clipPath id="clip-path">
      <rect id="Rectangle_25" data-name="Rectangle 25" width="87" height="11.009" transform="translate(0 0)" fill="#151517"/>
    </clipPath>
  </defs>
  <g id="Group_44" data-name="Group 44" transform="translate(0 0)">
    <g id="Group_10" data-name="Group 10" clip-path="url(#clip-path)">
      <path id="Path_5" data-name="Path 5" d="M87,5.505a.507.507,0,0,0-.156-.357l-5.258-5a.55.55,0,0,0-.752,0,.486.486,0,0,0,0,.714L85.187,5H.531a.506.506,0,1,0,0,1.01H85.187l-4.353,4.137a.487.487,0,0,0,0,.714.55.55,0,0,0,.752,0l5.258-5A.5.5,0,0,0,87,5.505" fill="#151517"/>
    </g>
  </g>
</svg>
