<svg xmlns="http://www.w3.org/2000/svg" xmlns:xlink="http://www.w3.org/1999/xlink" width="22" height="13.455" viewBox="0 0 22 13.455">
  <defs>
    <clipPath id="clip-path">
      <rect id="Rectangle_25" data-name="Rectangle 25" width="22" height="13.455" fill="#151517"/>
    </clipPath>
  </defs>
  <g id="Group_157" data-name="Group 157" transform="translate(91 13.456) rotate(180)">
    <g id="Group_10" data-name="Group 10" transform="translate(69 0)" clip-path="url(#clip-path)">
      <path id="Path_5" data-name="Path 5" d="M90.778,6.728a.62.62,0,0,0-.191-.436L84.161.182a.673.673,0,0,0-.919,0,.6.6,0,0,0,0,.873l5.32,5.056H70.649a.618.618,0,1,0,0,1.234H88.562L83.242,12.4a.6.6,0,0,0,0,.873.673.673,0,0,0,.919,0l6.426-6.111a.615.615,0,0,0,.191-.435" transform="translate(-68.778 0)" fill="#151517"/>
    </g>
  </g>
</svg>
