<svg xmlns="http://www.w3.org/2000/svg" xmlns:xlink="http://www.w3.org/1999/xlink" width="21" height="26.001" viewBox="0 0 21 26.001">
  <defs>
    <clipPath id="clip-path">
      <rect id="Rectangle_3" data-name="Rectangle 3" width="21" height="26.001" transform="translate(0 0)" fill="#101e4b"/>
    </clipPath>
  </defs>
  <g id="Group_2" data-name="Group 2" transform="translate(0 0)">
    <g id="Group_1" data-name="Group 1" clip-path="url(#clip-path)">
      <path id="Path_1" data-name="Path 1" d="M20.368,7.621H14.845V3.81A4.108,4.108,0,0,0,10.5,0,4.109,4.109,0,0,0,6.155,3.81V7.621H.632A.63.63,0,0,0,0,8.249V23.42A2.593,2.593,0,0,0,2.6,26H18.4A2.593,2.593,0,0,0,21,23.42V8.249a.631.631,0,0,0-.633-.628M7.421,3.81A2.857,2.857,0,0,1,10.5,1.256a2.858,2.858,0,0,1,3.08,2.554V7.621H7.421ZM19.735,23.42A1.332,1.332,0,0,1,18.4,24.745H2.6A1.332,1.332,0,0,1,1.265,23.42V8.877h4.89v1.7A1.265,1.265,0,0,0,5.469,11.7a1.32,1.32,0,0,0,2.638,0,1.263,1.263,0,0,0-.686-1.114v-1.7h6.16v1.7a1.264,1.264,0,0,0-.687,1.114,1.32,1.32,0,0,0,2.638,0,1.263,1.263,0,0,0-.687-1.114v-1.7h4.89Z" fill="#101e4b"/>
    </g>
  </g>
</svg>
