<?xml version="1.0" encoding="utf-8"?>
<!-- Generator: Adobe Illustrator 25.0.0, SVG Export Plug-In . SVG Version: 6.00 Build 0)  -->
<svg version="1.1" id="Layer_1" xmlns="http://www.w3.org/2000/svg" xmlns:xlink="http://www.w3.org/1999/xlink" x="0px" y="0px"
	 viewBox="0 0 15.1 15.1" style="enable-background:new 0 0 15.1 15.1;" xml:space="preserve">
<style type="text/css">
	.st0{fill:#151517;}
</style>
<path class="st0" d="M8.6,7.5l5.7-5.7c0.3-0.3,0.3-0.8,0-1s-0.8-0.3-1,0L7.5,6.5L1.8,0.8c-0.3-0.3-0.8-0.3-1,0s-0.3,0.8,0,1l5.7,5.7
	l-5.7,5.7c-0.3,0.3-0.3,0.8,0,1c0.1,0.1,0.3,0.2,0.5,0.2s0.4-0.1,0.5-0.2l5.7-5.7l5.7,5.7c0.1,0.1,0.3,0.2,0.5,0.2s0.4-0.1,0.5-0.2
	c0.3-0.3,0.3-0.8,0-1L8.6,7.5z"/>
</svg>
