<svg xmlns="http://www.w3.org/2000/svg" xmlns:xlink="http://www.w3.org/1999/xlink" width="22.999" height="18.999" viewBox="0 0 22.999 18.999">
  <defs>
    <clipPath id="clip-path">
      <rect id="Rectangle_4" data-name="Rectangle 4" width="22.999" height="18.999" transform="translate(0 0)" fill="#101e4b"/>
    </clipPath>
  </defs>
  <g id="Group_4" data-name="Group 4" transform="translate(0 0)">
    <g id="Group_3" data-name="Group 3" clip-path="url(#clip-path)">
      <path id="Path_2" data-name="Path 2" d="M16.925,0a6.455,6.455,0,0,0-3.376.895,8.7,8.7,0,0,0-1.857,1.517l-.192.2-.192-.2A8.76,8.76,0,0,0,9.451.895,6.463,6.463,0,0,0,6.074,0,5.916,5.916,0,0,0,0,5.73c0,3.862,2.364,6.227,11.093,12.933l.008.006.4.33.406-.336C20.636,11.956,23,9.592,23,5.73A5.916,5.916,0,0,0,16.925,0M11.664,17.279l-.164.128-.165-.128A65.864,65.864,0,0,1,3.4,10.487,6.735,6.735,0,0,1,1.3,5.73,4.657,4.657,0,0,1,6.074,1.212a5.18,5.18,0,0,1,2.89.827,9.29,9.29,0,0,1,1.8,1.615l.741.792.741-.794a9.341,9.341,0,0,1,1.794-1.614,5.185,5.185,0,0,1,2.89-.826A4.657,4.657,0,0,1,21.7,5.73a6.732,6.732,0,0,1-2.1,4.757,65.777,65.777,0,0,1-7.934,6.792" fill="#101e4b"/>
    </g>
  </g>
</svg>
