<svg xmlns="http://www.w3.org/2000/svg" xmlns:xlink="http://www.w3.org/1999/xlink" width="23.025" height="23" viewBox="0 0 23.025 23">
  <defs>
    <clipPath id="clip-path">
      <rect id="Rectangle_7" data-name="Rectangle 7" width="23.025" height="23" transform="translate(0 0)" fill="#101e4b"/>
    </clipPath>
  </defs>
  <g id="Group_8" data-name="Group 8" transform="translate(0 0)">
    <g id="Group_7" data-name="Group 7" clip-path="url(#clip-path)">
      <path id="Path_4" data-name="Path 4" d="M22.674,21.633c-1.108-1.054-1.912-1.821-2.664-2.537-1.087-1.036-2.025-1.93-3.595-3.422a1.062,1.062,0,0,0-.116-.092l.021-.023c.047-.052.1-.106.141-.161a8.756,8.756,0,0,0,2.178-7.634A9.193,9.193,0,0,0,11.672.295a8.24,8.24,0,0,0-1.13-.216C10.375.055,10.2.031,10.036,0l-.017,0H8.746L8.732,0,8.589.022c-.082.012-.167.025-.25.035a9.337,9.337,0,0,0-5.19,2.349,9.136,9.136,0,0,0-.8,13.011,9.324,9.324,0,0,0,12.088,1.719c.232-.149.457-.312.675-.471l.183-.133,0,0c2.047,1.948,5.938,5.638,6.715,6.367l.016.015.018.012A.522.522,0,0,0,22.3,23a.582.582,0,0,0,.261-.065l.013,0,.011-.008a.853.853,0,0,0,.435-.609.872.872,0,0,0-.349-.679M17.4,9.305A7.9,7.9,0,0,1,9.414,17.24H9.332a8.008,8.008,0,0,1-5.669-2.352A7.862,7.862,0,0,1,1.4,9.226a7.863,7.863,0,0,1,7.948-7.84h.065A7.879,7.879,0,0,1,17.4,9.305" fill="#101e4b"/>
    </g>
  </g>
</svg>
