<svg xmlns="http://www.w3.org/2000/svg" xmlns:xlink="http://www.w3.org/1999/xlink" width="23" height="24.001" viewBox="0 0 23 24.001">
  <defs>
    <clipPath id="clip-path">
      <rect id="Rectangle_5" data-name="Rectangle 5" width="23" height="24.001" transform="translate(0 0)" fill="#101e4b"/>
    </clipPath>
  </defs>
  <g id="Group_6" data-name="Group 6" transform="translate(0 0)">
    <g id="Group_5" data-name="Group 5" clip-path="url(#clip-path)">
      <path id="Path_3" data-name="Path 3" d="M23,23.1a11.31,11.31,0,0,0-.5-3.13,12.1,12.1,0,0,0-3-4.975,11.965,11.965,0,0,0-4.891-2.825A6.491,6.491,0,0,0,12.736.157C12.552.123,12.365.1,12.185.069l-.129-.02L11.9.026,11.744,0l-.492,0-.024,0-.013,0c-.029.007-.055.016-.076.023l-.007,0a.546.546,0,0,1-.1.024A6.019,6.019,0,0,0,8.773.637,6.49,6.49,0,0,0,5.189,7.732a6.419,6.419,0,0,0,3.2,4.444A11.6,11.6,0,0,0,0,23.069a.839.839,0,0,0,.485.917L.521,24H.736l.035-.018a.8.8,0,0,0,.461-.873,1.317,1.317,0,0,1,.013-.237v-.011c.007-.056.016-.121.019-.186a9.836,9.836,0,0,1,.912-3.659A10.193,10.193,0,0,1,11.5,12.991a10.42,10.42,0,0,1,1.48.107,9.506,9.506,0,0,1,3.691,1.318,10.284,10.284,0,0,1,5.075,8.716.888.888,0,0,0,.46.851l.037.018h.213l.033-.013A.8.8,0,0,0,23,23.1M16.676,6.51a5.219,5.219,0,0,1-5.191,5.23A5.128,5.128,0,0,1,7.823,10.2a5.241,5.241,0,0,1,3.666-8.933h0a5.135,5.135,0,0,1,3.661,1.543,5.228,5.228,0,0,1,1.525,3.7" fill="#101e4b"/>
    </g>
  </g>
</svg>
